# xmcd
#
# Track frame offsets:
#	150
#	9963
#	19931
#	28753
#	41231
#	52719
#	64834
#	76757
#	87542
#	99393
#	112002
#	125389
#	140014
#	155507
#	169910
#	181996
#	192855
#	205162
#	218255
#	231501
#	242838
#	254712
#	273949
#	287443
#	299364
#
# Disc length: 4122 seconds
#
# Revision: 0
# Processed by: cddbd v1.5.1PL0 Copyright (c) Steve Scherf et al.
# Submitted via: EasyCDDAExtractor 8.0.1.1
#
DISCID=66101819
DTITLE=Otis Redding - Otis! The Definitive Otis Redding, Vol. 1
DYEAR=1993
DGENRE=Blues
TTITLE0=She's All Right
TTITLE1=Gettin' Hip
TTITLE2=Shout Bamalama
TTITLE3=Hey Hey Baby
TTITLE4=These Arms Of Mine
TTITLE5=That's What My Heart Needs
TTITLE6=Mary's Little Lamb
TTITLE7=Pain In My Heart
TTITLE8=Security
TTITLE9=Come To Me
TTITLE10=Don't Leave Me This Way
TTITLE11=Little Ol' Me
TTITLE12=Don't Be Afraid Of Love
TTITLE13=Your One And Only Man
TTITLE14=Chained And Bound
TTITLE15=That's How Strong My Love Is
TTITLE16=Mr Pitiful
TTITLE17=For Your Precious Love
TTITLE18=I've Been Loving You Too Long (To Stop Now)
TTITLE19=I'm Depending On You
TTITLE20=Ole Man Trouble
TTITLE21=Change Gonna Come
TTITLE22=Down In The Valley
TTITLE23=Shake
TTITLE24=Respect
EXTD=
EXTT0=
EXTT1=
EXTT2=
EXTT3=
EXTT4=
EXTT5=
EXTT6=
EXTT7=
EXTT8=
EXTT9=
EXTT10=
EXTT11=
EXTT12=
EXTT13=
EXTT14=
EXTT15=
EXTT16=
EXTT17=
EXTT18=
EXTT19=
EXTT20=
EXTT21=
EXTT22=
EXTT23=
EXTT24=
PLAYORDER=
